<svg xmlns="http://www.w3.org/2000/svg" width="512" height="512" viewBox="0 0 56.48 56.48"><path d="M16.464 34.933c.061.188.082.388.12.582l-.028.007c.001.229-.014.458-.109.671-.14.314-.336.441-.657.434-.319-.008-.527-.17-.626-.464a1.873 1.873 0 0 1 .005-1.241c.108-.307.351-.459.669-.455a.642.642 0 0 1 .626.466zm15.568-.37c-.233-.023-.47-.007-.722-.007 0 .244 0 .482.004.723 0 .023.037.066.057.066.204 0 .41.008.611-.012.184-.019.304-.186.309-.383.006-.208-.084-.37-.259-.387zm2.322 1.327h.816l-.396-1.219c-.143.422-.282.818-.42 1.219zm14.941-1.34c-.184-.009-.365-.007-.548-.013-.062-.002-.083.021-.082.08.002.106 0 .215 0 .322v.321c0 .056.017.09.079.088.189-.004.38.002.568-.012.199-.015.336-.199.328-.42-.007-.226-.128-.358-.345-.366zm7.185-23.157v33.695c0 .803-.65 1.454-1.454 1.454H1.454A1.454 1.454 0 0 1 0 45.087V11.393c0-.803.65-1.454 1.454-1.454h53.572c.804 0 1.454.651 1.454 1.454zM49.799 30.54h.575V20.157h-.575V30.54zm-10.42-10.307c.002 1.511.002 3.022.002 4.534 0 .038.006.076.008.118.043.002.074.005.104.005.431 0 .858-.002 1.29.002.094.001.12-.021.12-.119-.004-.895-.002-1.791-.002-2.686 0-.033.005-.064.007-.097a.953.953 0 0 1 .109.238c.296.85.593 1.7.884 2.551.03.088.073.112.163.111.68-.004 1.359-.002 2.041-.002.027 0 .055-.004.083-.006v-4.767h-1.509v2.872l-.028.004c-.015-.032-.03-.063-.041-.095-.313-.897-.627-1.793-.937-2.691-.025-.071-.059-.1-.138-.099-.677.004-1.354.004-2.03 0-.099 0-.126.03-.126.127zm-5.895 4.65h1.832v-1.711c.158.013.305.016.447.04.119.019.199.1.226.219.028.125.046.252.067.379l.168.981c.012.07.041.101.121.101.547-.004 1.096-.002 1.644-.002.03 0 .062-.004.075-.005-.061-.369-.121-.731-.178-1.093-.035-.222-.055-.447-.097-.667-.063-.332-.271-.534-.598-.615l-.204-.052.109-.036c.254-.08.482-.198.642-.424.179-.256.201-.549.175-.844-.037-.432-.249-.743-.669-.899-.321-.119-.655-.141-.991-.143-.886-.005-1.771-.002-2.654-.002h-.115v4.773zm-5.052 0c.024.002.038.006.051.006l3.534.001c.072 0 .093-.022.092-.093-.003-.343-.006-.688.001-1.031.001-.093-.029-.113-.115-.112-.552.003-1.104.002-1.653.001-.039 0-.076-.004-.115-.006v-.545h1.666v-1.236h-1.664v-.525h1.811v-1.229h-3.607l-.001 4.769zm3.117.963c-.309.005-.617.002-.925.002h-.84c-.003.044-.007.075-.007.106l-.001 4.565c0 .082.021.111.108.109.541-.004 1.082-.002 1.621-.002.146 0 .146 0 .146-.146v-4.136c0-.132-.004-.265.001-.397.003-.077-.023-.102-.103-.101zm-8.617-4.454h1.179v3.493h1.881v-3.497h1.169v-1.271h-4.229v1.275zm-5.557 2.095c0 .025 0 .05.002.075.054.634.393 1.047.983 1.266.371.137.757.178 1.148.184.438.006.872-.03 1.29-.177.551-.194.94-.539 1.052-1.137.146-.786-.167-1.349-.916-1.624-.318-.117-.649-.197-.974-.294-.208-.062-.419-.118-.624-.189-.108-.038-.16-.132-.154-.248.006-.121.073-.21.186-.236.127-.028.262-.044.39-.033.16.015.261.12.276.27.011.1.057.111.14.11.48-.003.96-.001 1.439-.001.035 0 .07-.004.1-.006.007-.016.012-.022.013-.028.002-.011.002-.021.002-.032-.012-.489-.216-.868-.649-1.11-.298-.167-.625-.239-.963-.266-.534-.042-1.066-.037-1.582.135-.584.196-.991.556-1.062 1.201-.072.645.14 1.145.77 1.386.353.135.722.225 1.083.336.191.059.385.111.572.18.162.06.242.193.221.329a.416.416 0 0 1-.388.354c-.284.022-.45-.063-.517-.275-.024-.074-.036-.151-.055-.232h-1.779c0 .027-.003.045-.004.062zm-4.853-3.237l.001 4.481c0 .05.004.099.007.152h3.669v-1.23h-1.864v-.549h1.67V21.87h-1.672v-.525h1.811c.002-.045.006-.076.006-.108 0-.337-.002-.674.002-1.011.001-.096-.034-.118-.126-.118-1.121.003-2.243.002-3.364.002-.14-.001-.14 0-.14.14zm-2.106 4.422l.499-2.292.388-1.801c.032-.152.062-.306.094-.464H9.72l-.403 2.992a.366.366 0 0 0-.034-.002c-.043-.307-.085-.614-.131-.922-.097-.653-.199-1.306-.292-1.961-.013-.093-.042-.116-.131-.115-.573.004-1.146.002-1.72.002-.038 0-.077.004-.115.006l-.442 2.993H6.42l-.404-2.996H4.348c.002.041 0 .069.007.097.192.882.385 1.765.576 2.648.137.635.274 1.271.407 1.907.019.089.049.128.152.126.523-.006 1.046-.003 1.568-.003h.351l.442-3.079h.035l.442 3.079h1.82c.219.002.22.003.268-.215zm3.384 9.483c.001-.078-.025-.106-.106-.104-.254.004-.509.01-.763-.002-.126-.007-.171.045-.206.155-.199.652-.405 1.304-.615 1.974-.014-.031-.02-.041-.022-.051-.19-.658-.382-1.316-.57-1.976-.021-.074-.053-.104-.134-.103-.15.006-.301.002-.451.002h-.483v2.985c.162 0 .315-.005.468.002.102.005.136-.026.134-.132-.004-.734-.001-1.469-.001-2.204v-.089c.126.346.235.691.342 1.04.134.43.268.858.399 1.29.021.068.057.099.13.096.122-.006.244.001.365-.006.032-.002.079-.036.089-.064.192-.596.38-1.19.568-1.787.064-.205.13-.407.195-.61l.019.004v2.461c.186 0 .364-.003.542.001.076.002.101-.025.1-.1-.001-.928-.002-1.855 0-2.782zm3.305.645c-.125-.322-.34-.568-.673-.695a1.714 1.714 0 0 0-.969-.076 1.19 1.19 0 0 0-.84.59 2.077 2.077 0 0 0-.251.864c.027.212.037.427.083.635.086.388.307.679.676.849.34.154.696.184 1.058.102.386-.088.691-.295.859-.664.237-.527.266-1.066.057-1.605zm3.386 1.371c0-.668-.001-1.334.002-2 0-.095-.029-.127-.123-.123a2.779 2.779 0 0 1-.365 0c-.099-.005-.128.028-.127.129.004.666.002 1.332.002 2v.142a.104.104 0 0 1-.039-.048c-.336-.707-.673-1.414-1.007-2.122-.035-.072-.074-.101-.154-.099-.189.006-.379.002-.569 0h-.247v2.987h.444c.165 0 .165-.001.165-.16v-2.254l.049.089c.347.746.695 1.49 1.04 2.237.031.065.066.09.137.09.229-.004.459-.004.688 0 .077.001.107-.022.105-.104-.003-.256-.001-.51-.001-.764zm.065-5.535c.822-.19 1.283-.765 1.284-1.604.002-1.019.001-2.035.001-3.052v-.125h-1.882v.261c0 .931.001 1.862-.003 2.794 0 .112-.016.229-.049.336a.314.314 0 0 1-.305.23c-.157.009-.285-.055-.342-.205a.861.861 0 0 1-.064-.312c-.005-.991-.004-1.984-.004-2.976v-.131h-1.873c-.002.027-.006.041-.006.054 0 1.086-.005 2.171.007 3.256.002.188.053.384.123.562.187.479.573.742 1.046.877.683.199 1.375.195 2.067.035zm2.698 5.989c.004-.082-.021-.104-.103-.104-.383.004-.766.002-1.15.002-.042 0-.083-.003-.136-.007 0-.228.003-.444-.001-.662-.002-.084.025-.111.109-.111.33.004.659.002.989.002.049 0 .098-.005.152-.008v-.489c-.05-.003-.096-.008-.141-.008-.333-.001-.667.001-1-.002-.036-.001-.102-.034-.102-.054-.008-.207-.005-.413-.005-.637h1.34c0-.125-.008-.242.002-.359.009-.108-.027-.141-.136-.139-.577.004-1.153.004-1.73 0-.102 0-.133.025-.132.129.003.906.001 1.813.001 2.72v.131h2.04c.001-.141-.004-.272.003-.404zm.128-6.003H24.9v-2.895a.254.254 0 0 0 .029-.004c.018.045.037.088.053.133.311.89.621 1.78.928 2.672.027.077.063.103.144.103.681-.004 1.361-.002 2.042-.002.031 0 .063-.005.099-.007v-4.768h-1.509v2.871l-.031.006c-.011-.024-.023-.047-.031-.073-.317-.903-.635-1.806-.948-2.71-.027-.079-.064-.101-.144-.1-.676.003-1.354.003-2.031-.001-.098 0-.125.025-.125.125.003 1.511.001 3.023.001 4.535 0 .035.003.075.005.115zm2.895 3.449c-.208 0-.392.003-.577-.001-.068-.002-.1.021-.127.083-.108.241-.221.479-.333.72l-.246.529a1.487 1.487 0 0 0-.034-.075c-.178-.394-.355-.789-.536-1.181-.015-.031-.057-.07-.086-.072-.225-.005-.451-.003-.697-.003l.048.103c.297.556.596 1.108.89 1.666.034.062.052.14.054.211.006.293.004.588 0 .881-.001.078.021.109.103.106.143-.006.287-.006.43 0 .088.004.118-.026.117-.114a37.975 37.975 0 0 1 0-.893c0-.051.011-.107.035-.152.234-.447.473-.892.709-1.336l.25-.472zm3.948-.021h-.522c-.588 0-1.175.002-1.763 0-.092 0-.131.023-.123.121.008.098.006.194.001.291-.004.08.024.106.104.104.218-.004.437.002.655-.003.092-.004.122.023.122.119-.004.725-.002 1.449-.002 2.172 0 .039-.005.08.004.117.006.024.035.061.054.062.196.004.392.003.597.003v-.143c0-.703 0-1.404.002-2.107 0-.247-.045-.219.222-.221.215-.002.429-.001.647-.001.002-.174.002-.333.002-.514zm2.826 2.977c-.025-.082-.057-.15-.069-.223a21.09 21.09 0 0 1-.104-.668c-.039-.279-.111-.533-.476-.58.062-.024.096-.039.131-.053.287-.125.456-.373.444-.673-.014-.319-.152-.573-.459-.688a1.714 1.714 0 0 0-.535-.088c-.396-.014-.795-.002-1.192-.006-.096 0-.12.029-.12.123.004.912.002 1.826.002 2.74 0 .037.004.075.006.115h.66V35.84c.229 0 .446-.007.664.004.098.004.172.07.197.172.02.08.033.16.044.242.038.254.073.508.11.768l.697.001zm.102-7.944c.139.531.413.971.881 1.275.451.294.955.386 1.483.402.209-.022.422-.031.627-.07.779-.148 1.355-.569 1.639-1.324.268-.709.27-1.435.038-2.156a2.003 2.003 0 0 0-1.082-1.24c-.365-.173-.754-.237-1.155-.244-.539-.009-1.058.072-1.52.368-.645.409-.917 1.035-.996 1.765-.044.413-.021.822.085 1.224zm3.045 7.955l-.026-.096c-.104-.304-.207-.608-.313-.912-.218-.628-.435-1.255-.65-1.884-.024-.073-.063-.1-.14-.098-.176.006-.352.01-.527 0-.107-.007-.148.039-.181.131-.25.705-.503 1.406-.757 2.109-.086.241-.172.482-.268.746.191 0 .359-.004.527.002.075.002.107-.027.128-.096.047-.15.104-.297.149-.447.023-.07.059-.102.139-.1.254.007.509.003.763.003.3 0 .298.001.394.29.037.115.055.266.136.326.078.059.228.021.345.022.091.005.181.004.281.004zm3.167-2.892c0-.068-.023-.098-.093-.096-.132.002-.265.006-.397 0-.093-.004-.123.021-.123.118.004.691.002 1.384.002 2.074 0 .024-.002.049-.005.095l-.042-.076c-.333-.705-.669-1.408-1-2.112-.033-.071-.072-.103-.152-.099-.233.004-.467.006-.698 0-.101-.004-.125.03-.125.129.004.912.002 1.824.002 2.738v.121h.472c.143-.001.143-.001.143-.14v-2.244l.018-.003.258.553c.271.583.542 1.167.817 1.749.019.038.075.08.116.081.238.008.479.003.72.005.062 0 .089-.021.089-.088-.003-.936-.003-1.87-.002-2.805zm.133-3.516a54.53 54.53 0 0 1 1.279 0c.098 0 .127-.023.126-.125-.004-.873-.002-1.748-.002-2.622v-.154c.04.031.058.065.069.099.313.901.627 1.802.938 2.704.025.073.059.098.137.098.68-.002 1.36-.002 2.041-.002h.105v-4.771h-1.518v2.868a.165.165 0 0 1-.058-.082c-.315-.899-.631-1.799-.944-2.7-.022-.066-.05-.097-.125-.096-.688.003-1.375.003-2.063.001-.083-.001-.103.028-.103.106.002 1.522.002 3.044 0 4.566-.001.093.032.11.118.11zm2.598 4.961a1.746 1.746 0 0 0-.471-.224c-.212-.073-.435-.114-.65-.179-.271-.081-.371-.342-.213-.549.156-.207.565-.242.74-.049.075.084.112.207.174.322h.582c.041-.372-.203-.718-.582-.838a1.719 1.719 0 0 0-.9-.023 1.092 1.092 0 0 0-.485.24c-.325.278-.448 1.008.146 1.305.123.062.254.115.386.158.204.064.415.107.618.176.265.091.314.401.095.576a.586.586 0 0 1-.241.105c-.342.066-.705-.023-.705-.48 0-.021-.049-.057-.076-.058-.121-.007-.244-.003-.365-.003-.223 0-.227 0-.206.219.03.34.198.588.521.711.346.135.704.135 1.064.053.267-.061.494-.184.66-.406.246-.341.216-.822-.092-1.056zm2.775-1.526c-.038-.003-.066-.009-.095-.009-.572 0-1.146.002-1.718 0-.096 0-.108.043-.108.125.002.906.002 1.812.002 2.717 0 .025-.007.054.002.074.011.024.037.06.058.06.191.005.385.003.595.003v-1.26h1.188v-.371c0-.141 0-.141-.141-.141-.314 0-.63.002-.945-.002-.035 0-.101-.033-.102-.054-.008-.216-.004-.433-.004-.661h1.268v-.481zm.434-3.525h.578V20.157h-.578V30.54zm2.141 5.984h-.124c-.383 0-.766-.003-1.148.001-.088.001-.11-.029-.108-.11.005-.167.001-.336.002-.504 0-.166 0-.165.159-.165h.935c.05-.001.099-.004.161-.008v-.359c0-.138 0-.139-.143-.139-.332-.001-.666.001-.998-.003-.037 0-.106-.031-.106-.049-.007-.21-.005-.419-.005-.642h1.338c0-.13-.007-.248.002-.365.008-.104-.029-.133-.132-.133-.576.004-1.153.002-1.729.002-.041 0-.082.004-.127.006v2.973h2.023v-.505zm2.931.51c-.041-.226-.08-.438-.117-.651-.022-.125-.037-.254-.06-.379-.042-.242-.168-.408-.446-.445.055-.023.086-.039.116-.051.356-.154.457-.414.453-.688a.716.716 0 0 0-.53-.701 1.944 1.944 0 0 0-.488-.063c-.383-.01-.766-.004-1.148-.002-.042 0-.083.004-.13.006v2.971h.653v-1.188h.558c.226 0 .3.065.333.289.04.274.081.549.125.825.004.029.033.076.051.077.216.003.433 0 .63 0zm1.78-16.333a.608.608 0 0 0-.627-.621.629.629 0 0 0-.621.625c.003.34.293.621.64.618a.615.615 0 0 0 .608-.622zm-.084.008a.532.532 0 0 1-.536.551.552.552 0 0 1-.542-.564c0-.31.246-.557.55-.554.307.004.529.244.528.567zm-.229-.214c-.019-.052-.082-.117-.133-.125-.125-.018-.255-.005-.379-.005v.679l.04.001v-.307c.125-.039.202-.019.25.087a.947.947 0 0 0 .106.172c.019.024.053.037.08.055l.019-.022a93.46 93.46 0 0 1-.188-.298c.047-.013.084-.019.115-.034.088-.04.121-.122.09-.203zm-16.375 9.022c.242.021.41-.088.467-.358.064-.303.089-.614.129-.921l-.034-.003c0-.108.006-.216-.001-.323-.018-.246-.031-.493-.139-.722-.08-.169-.215-.241-.396-.234a.371.371 0 0 0-.361.255 1.243 1.243 0 0 0-.09.351c-.018.396-.035.793-.02 1.189.008.19.078.382.141.566.043.133.165.19.304.2zm.408-7.482c.168-.083.24-.225.243-.409.001-.166-.046-.305-.21-.376-.189-.081-.388-.067-.59-.06v.911c.198.014.383.02.557-.066zm15.527-1.626c-.007 0-.018.021-.021.033-.05.148.004.224.188.224.017-.001.065.007.106-.01.037-.016.08-.054.088-.091.01-.037-.012-.117-.031-.121-.107-.021-.218-.027-.33-.035z" fill="#FFF"/></svg>